# xmcd CD database file
#
# Track frame offsets:
#	150
#	13700
#	30202
#	44222
#	55945
#	68887
#	81530
#	97805
#	110350
#	126097
#	140652
#	157435
#	167007
#
# Disc length: 2414 seconds
#
# Revision: 0
# Processed by: cddbd v1.4PL0 Copyright (c) Steve Scherf et al.
# Submitted via: CDex 1.50Beta7
#
DISCID=b5096c0d
DTITLE=Dinah Washington - ballads
DYEAR=1900
DGENRE=Jazz
TTITLE0=Lover Man
TTITLE1=I Wanna Be Around
TTITLE2=I Didn't Know About You
TTITLE3=Funny Thing
TTITLE4=I'll Close My Eyes
TTITLE5=The Show Must Go On
TTITLE6=If It's The Last Thing I do
TTITLE7=He's Gone Again
TTITLE8=These Foolish Things
TTITLE9=For All We Know
TTITLE10=What's New
TTITLE11=Baby Won't You Please Come Home
TTITLE12=A Stranger On Earth
EXTD=
EXTT0=
EXTT1=
EXTT2=
EXTT3=
EXTT4=
EXTT5=
EXTT6=
EXTT7=
EXTT8=
EXTT9=
EXTT10=
EXTT11=
EXTT12=
PLAYORDER=
